<svg id="Capa_1" data-name="Capa 1" xmlns="http://www.w3.org/2000/svg" viewBox="0 0 255.81 259.25"><defs><style>.cls-1{fill:#3c3c3b;}</style></defs><path class="cls-1" d="M92.61,21.2l3.59-1.32A5.5,5.5,0,0,1,103.58,23v0A5.51,5.51,0,0,1,100,30.21l-3.59,1.32Zm1.56.65,3,8.17,2.42-.89a4.26,4.26,0,0,0,2.79-5.63v0A4.3,4.3,0,0,0,96.59,21Z" transform="translate(-16.13 -11.61)"/><path class="cls-1" d="M104.9,17l1.2-.35,3.07,10.57-1.2.35Z" transform="translate(-16.13 -11.61)"/><path class="cls-1" d="M111.06,24.93l.56-1.06a5.21,5.21,0,0,0,4,.69c1.44-.32,2.22-1.31,2-2.36v0c-.22-1-.89-1.45-3.25-1.41-2.59,0-3.9-.52-4.3-2.29v0c-.38-1.69.83-3.27,2.87-3.73a5.75,5.75,0,0,1,4.07.47l-.5,1.1a4.81,4.81,0,0,0-3.36-.47c-1.4.31-2.11,1.28-1.89,2.25v0c.23,1,.91,1.46,3.39,1.43s3.81.6,4.18,2.25v0c.41,1.84-.85,3.38-3,3.86A6.43,6.43,0,0,1,111.06,24.93Z" transform="translate(-16.13 -11.61)"/><path class="cls-1" d="M120.67,22.83l.63-1a5.21,5.21,0,0,0,4,1c1.46-.2,2.32-1.12,2.17-2.19v0c-.14-1-.77-1.51-3.12-1.68-2.59-.19-3.85-.84-4.11-2.63v0c-.24-1.71,1.09-3.19,3.17-3.48a5.78,5.78,0,0,1,4,.8l-.59,1.05a4.84,4.84,0,0,0-3.31-.74c-1.42.2-2.21,1.11-2.08,2.09v0c.14,1,.79,1.53,3.26,1.7s3.75.92,4,2.59v0c.26,1.87-1.13,3.3-3.29,3.61A6.47,6.47,0,0,1,120.67,22.83Z" transform="translate(-16.13 -11.61)"/><path class="cls-1" d="M134.64,11.77l1.16-.06,5.56,10.83L140,22.6l-1.43-2.84-6,.3-1.16,3-1.28.06Zm3.41,6.89-2.77-5.47L133,18.9Z" transform="translate(-16.13 -11.61)"/><path class="cls-1" d="M143.83,11.61l4.68.23A4,4,0,0,1,151.34,13a2.45,2.45,0,0,1,.62,1.79v0a2.66,2.66,0,0,1-1.87,2.46c1.28.46,2.3,1.27,2.23,2.77v0c-.09,1.88-1.73,2.92-4.13,2.8l-4.89-.24Zm4.4,6.24-3.47-.17-.19,3.88,3.69.18c1.67.08,2.74-.61,2.8-1.83v0C151.12,18.68,150.15,17.94,148.23,17.85Zm2.46-3c.05-1.08-.77-1.83-2.35-1.91L145,12.79l-.19,3.79,3.25.16c1.5.07,2.57-.56,2.63-1.85Z" transform="translate(-16.13 -11.61)"/><path class="cls-1" d="M158.41,13.9l-3.66-.53.16-1.13,8.57,1.22-.17,1.14-3.66-.52-1.39,9.76L157,23.66Z" transform="translate(-16.13 -11.61)"/><path class="cls-1" d="M166.4,14l7.77,1.72-.24,1.11-6.56-1.46L166.55,19l5.87,1.3-.24,1.1-5.87-1.3-.83,3.77,6.63,1.47-.24,1.1L164,24.73Z" transform="translate(-16.13 -11.61)"/><path class="cls-1" d="M182.49,28.76l5-1.8c2.12-.78,3-1.34,3.41-2.36a2.1,2.1,0,0,0-1.28-2.78c-1.17-.47-2.17-.16-3.44.66l-.61-.95a4.37,4.37,0,0,1,4.55-.72,3.18,3.18,0,0,1,2,4.16v0c-.59,1.49-1.75,2.1-4.17,2.95l-3.7,1.33,5.43,2.16-.42,1.05-7.15-2.84Z" transform="translate(-16.13 -11.61)"/><path class="cls-1" d="M196.86,33.23l-5.21-2.56.12-1,8.94-4,1,.49-3.29,6.68,1.52.75-.46.93L198,33.77l-1.16,2.34-1.08-.53Zm.46-.93,2.51-5.1-6.66,3.06Z" transform="translate(-16.13 -11.61)"/><path class="cls-1" d="M210.35,31.12l3.17,2.13c2.88,1.93,3.54,5.23,1.81,7.8l0,0a5.52,5.52,0,0,1-7.93,1.31l-3.17-2.13Zm.39,1.64L205.88,40,208,41.44a4.27,4.27,0,0,0,6.2-1l0,0a4.29,4.29,0,0,0-1.36-6.16Z" transform="translate(-16.13 -11.61)"/><path class="cls-1" d="M221.11,38.61l6.17,5-.72.88-5.2-4.26L219,43.18,223.63,47l-.72.88-4.65-3.81-2.44,3,5.26,4.3-.72.88-6.22-5.09Z" transform="translate(-16.13 -11.61)"/><path class="cls-1" d="M225.92,55l1.17.11a2.84,2.84,0,0,0,.62,2.9c.86.89,2.14.93,3.4-.29l5.3-5.12.88.9L232,58.57a4,4,0,0,1-2.78,1.28,3.34,3.34,0,0,1-2.34-1.11A3.75,3.75,0,0,1,225.92,55Z" transform="translate(-16.13 -11.61)"/><path class="cls-1" d="M234.7,60.07l5-4,.78,1-4.9,4c-1.85,1.5-2.08,3.33-.76,5s3.05,1.8,4.92.28l5-4,.79,1-4.9,4c-2.49,2-4.94,1.65-6.68-.48S232.28,62,234.7,60.07Z" transform="translate(-16.13 -11.61)"/><path class="cls-1" d="M247.61,66.12l.7,1-8.18,5.53,3.48,5.13-1,.65-4.17-6.17Z" transform="translate(-16.13 -11.61)"/><path class="cls-1" d="M253.25,74.79l.63,1.07-9.46,5.63-.64-1.07Z" transform="translate(-16.13 -11.61)"/><path class="cls-1" d="M250.7,81.18h0a5.62,5.62,0,1,1,5.05,10h0a5.62,5.62,0,1,1-5-10Zm4.43,8.9h0a4.38,4.38,0,0,0,2.13-5.92,4.32,4.32,0,0,0-6-1.84h0a4.38,4.38,0,0,0-2.13,5.92A4.32,4.32,0,0,0,255.13,90.08Z" transform="translate(-16.13 -11.61)"/><path class="cls-1" d="M262,92l.45,1.16-9.2,3.54,2.22,5.79-1.07.41-2.67-6.94Z" transform="translate(-16.13 -11.61)"/><path class="cls-1" d="M267.09,106.65l.9,3.71c.81,3.37-.94,6.25-3.95,7h0a5.52,5.52,0,0,1-6.73-4.4l-.9-3.71Zm-.83,1.47-8.47,2,.61,2.51a4.26,4.26,0,0,0,5.28,3.42h0a4.28,4.28,0,0,0,3.16-5.46Z" transform="translate(-16.13 -11.61)"/><path class="cls-1" d="M270,119.41l1.14,7.88-1.12.16-1-6.65-3.72.54.85,6-1.12.16-.86-6-3.81.56,1,6.72-1.12.16-1.15-8Z" transform="translate(-16.13 -11.61)"/><path class="cls-1" d="M261.64,135l3.61,3.92c1.54,1.65,2.41,2.24,3.51,2.22a2.11,2.11,0,0,0,2.06-2.26c0-1.26-.71-2.06-1.95-2.92l.64-.93a4.38,4.38,0,0,1,2.43,3.92,3.18,3.18,0,0,1-3.05,3.48h0c-1.6,0-2.61-.79-4.33-2.69l-2.68-2.89.13,5.84-1.14,0-.16-7.69Z" transform="translate(-16.13 -11.61)"/><path class="cls-1" d="M266.31,144.82h0c3.08.19,5.57,2.2,5.39,5s-2.87,4.45-5.94,4.26h0c-3.07-.2-5.56-2.18-5.38-5S263.23,144.62,266.31,144.82Zm-.5,8h0c2.4.15,4.63-1,4.76-3.07s-1.89-3.48-4.31-3.63h0c-2.4-.16-4.63,1-4.76,3.08S263.4,152.66,265.81,152.81Z" transform="translate(-16.13 -11.61)"/><path class="cls-1" d="M261,155.24,264,159.7c1.26,1.88,2,2.61,3.1,2.77a2.11,2.11,0,0,0,2.41-1.89c.18-1.25-.36-2.15-1.45-3.2l.79-.81a4.37,4.37,0,0,1,1.75,4.26,3.17,3.17,0,0,1-3.58,2.93h0c-1.59-.23-2.45-1.22-3.83-3.37L261,157.1l-.85,5.77-1.12-.16,1.11-7.61Z" transform="translate(-16.13 -11.61)"/><path class="cls-1" d="M267.82,168.29l-.2-2.16,1.05-.09.35,2.83-.18.89L258,167.48l.25-1.2Z" transform="translate(-16.13 -11.61)"/><path class="cls-1" d="M20.81,178.34l-.53-2-2.81.26-.29-1.06L20,175.3l-.78-2.91-2.81.27-.28-1.07,2.81-.26-.45-1.66,1.05-.28.49,1.84,3.37-.31-.48-1.8,1-.27.53,2,2.75-.25.28,1.07-2.75.25.78,2.9,2.75-.25.28,1.07-2.75.24.45,1.66-1.05.28L24.75,176l-3.37.31.48,1.8Zm-.51-6,.78,2.9,3.4-.32L23.71,172Z" transform="translate(-16.13 -11.61)"/><path class="cls-1" d="M29.5,178.59l1.62,4.4a4.06,4.06,0,0,1,.07,3,2.46,2.46,0,0,1-1.41,1.27h0a2.65,2.65,0,0,1-3-.77c.08,1.37-.27,2.62-1.69,3.13h0c-1.77.65-3.37-.45-4.19-2.71l-1.68-4.6Zm-4,6.48-1.2-3.27-3.64,1.34,1.27,3.47c.57,1.57,1.62,2.29,2.77,1.87l0,0C25.84,188.05,26.14,186.87,25.48,185.07Zm3.7,1.1c1-.37,1.39-1.43.85-2.9l-1.15-3.15-3.56,1.31,1.12,3c.51,1.41,1.5,2.15,2.72,1.71Z" transform="translate(-16.13 -11.61)"/><path class="cls-1" d="M28.16,190.81l0,0a5.62,5.62,0,1,1,4.94,10.09h0a5.59,5.59,0,0,1-7.59-2.57A5.53,5.53,0,0,1,28.16,190.81Zm4.35,8.94,0,0a4.38,4.38,0,0,0,2.19-5.89,4.33,4.33,0,0,0-5.95-1.9h0a4.39,4.39,0,0,0-2.19,5.9A4.34,4.34,0,0,0,32.51,199.75Z" transform="translate(-16.13 -11.61)"/><path class="cls-1" d="M39.14,200.35l2,3.24c1.83,2.94,1.08,6.23-1.56,7.87l0,0a5.52,5.52,0,0,1-7.77-2.06l-2-3.25ZM38.82,202l-7.4,4.61,1.36,2.19a4.27,4.27,0,0,0,6.09,1.59l0,0a4.28,4.28,0,0,0,1.28-6.18Z" transform="translate(-16.13 -11.61)"/><path class="cls-1" d="M47.66,213l.71.93L42.6,224.62l-.81-1.07,1.53-2.79L39.67,216l-3.1.73-.78-1Zm-3.74,6.72,2.93-5.39-6,1.41Z" transform="translate(-16.13 -11.61)"/><path class="cls-1" d="M47.72,222.14l0,0a5.56,5.56,0,0,1,8,.22,5.74,5.74,0,0,1,1.63,4.34H56.09a4.76,4.76,0,0,0-1.24-3.57,4.32,4.32,0,0,0-6.21-.06l0,0a4.35,4.35,0,0,0-.44,6.22,4.76,4.76,0,0,0,3.58,1.53l0,1.14A5.73,5.73,0,0,1,47.31,230,5.5,5.5,0,0,1,47.72,222.14Z" transform="translate(-16.13 -11.61)"/><path class="cls-1" d="M62.87,229.5l.87.78L60.13,241.9l-1-.89,1-3-4.48-4-2.91,1.31-1-.85Zm-2.38,7.31L62.33,231l-5.6,2.52Z" transform="translate(-16.13 -11.61)"/><path class="cls-1" d="M68.85,234.7l3.83,2.78a4.32,4.32,0,0,1,1.89,2.73,3,3,0,0,1-.59,2.26l0,0a3.21,3.21,0,0,1-4.3.84l.09,5.63-1.24-.89-.06-5.34-2.55-1.86-2.52,3.47-1-.73Zm.44,7.26c1.34,1,2.79,1,3.63-.17v0c.8-1.1.44-2.37-1-3.42l-2.75-2L66.56,240Z" transform="translate(-16.13 -11.61)"/><path class="cls-1" d="M77.87,241.07l1.07.64-5.11,8.44,5.31,3.21-.6,1-6.37-3.85Z" transform="translate(-16.13 -11.61)"/><path class="cls-1" d="M89.57,247.55l1,.52-.36,12.16-1.2-.58.12-3.19-5.39-2.63-2.45,2-1.14-.56Zm-.34,7.68.21-6.13L84.72,253Z" transform="translate(-16.13 -11.61)"/><path class="cls-1" d="M97,251l1.15.47L94,261.66l-1.16-.46Z" transform="translate(-16.13 -11.61)"/><path class="cls-1" d="M104.72,253.78l1.11.36,1.33,12.1-1.28-.41-.32-3.17-5.7-1.86-2.14,2.36-1.22-.39Zm.73,7.65-.64-6.1-4.13,4.54Z" transform="translate(-16.13 -11.61)"/><path class="cls-1" d="M112.3,256.14l1.22.27L111.33,266l6,1.37-.26,1.12-7.25-1.65Z" transform="translate(-16.13 -11.61)"/><path class="cls-1" d="M121.46,258.12l7.89,1.12-.16,1.12-6.65-.95-.53,3.73L128,264l-.16,1.12-6-.84-.54,3.82L128,269l-.16,1.12-8-1.13Z" transform="translate(-16.13 -11.61)"/><path class="cls-1" d="M131.76,259.38l1.24.1-.86,11-1.24-.1Z" transform="translate(-16.13 -11.61)"/><path class="cls-1" d="M144.9,259.86l-4.13,5.34,4.14,5.66-1.47,0L140,266.05l-3.59,4.7-1.43,0,4.29-5.55-4-5.45,1.46,0,3.31,4.57,3.42-4.48Z" transform="translate(-16.13 -11.61)"/><path class="cls-1" d="M37,135a18.13,18.13,0,0,1-6.33-1.57c-2.61-1-4.79-3.83-6.48-8.39A42.79,42.79,0,0,1,22,111.53c0-1.42.07-2.83.2-4.22a78.94,78.94,0,0,1,5.6-23.21c3.85-9.33,10.37-22.51,22.46-29.33a20.36,20.36,0,0,1,3.61-1.69,8.27,8.27,0,0,1,3-.53c.3,0,.6,0,.93.06a7.83,7.83,0,0,1,4.56,2.25,8.87,8.87,0,0,1,2.53,4.76,12.24,12.24,0,0,1,.26,2.48,13.2,13.2,0,0,1-.16,2,.61.61,0,0,0,0,.21q0,.75-.6.81H64.2c-.44,0-.73-.36-.78-.93s-.25-1.31-.35-2a21.06,21.06,0,0,0-.45-2.45c-.76-3-2.31-4.53-4.6-4.53a8.33,8.33,0,0,0-2.94.6,13.31,13.31,0,0,0-3.81,2.37A54,54,0,0,0,43,66.39a62.72,62.72,0,0,0-6.27,9.72,98.46,98.46,0,0,0-9.34,25.48,56.53,56.53,0,0,0-1.16,8.78v.16c0,.81-.06,1.6-.06,2.42a40.1,40.1,0,0,0,.49,6.26,24.89,24.89,0,0,0,3,8.51c1.77,3.1,3.66,4.31,7,4.46h.65c3.32,0,6.59-1.29,10-4A125.83,125.83,0,0,0,60,116.75a160.3,160.3,0,0,0,13-14.85c.13-.19,1.37-1.79,2.67-3.48s2.54-3.28,2.67-3.47a.48.48,0,0,1,.3-.09c.15,0,.43.08.58.58a4.61,4.61,0,0,1,.16,1.2A2.35,2.35,0,0,1,79,98.11l-.59.75c-.69.88-1.62,2.06-2.77,3.55s-2.37,3-3.53,4.51l-2.56,3.23a214.06,214.06,0,0,1-15.36,15.91,43.08,43.08,0,0,1-9.73,7A16.88,16.88,0,0,1,37,135Z" transform="translate(-16.13 -11.61)"/><path class="cls-1" d="M56.82,52.68a8.86,8.86,0,0,1,1,.07,7.68,7.68,0,0,1,4.4,2.2,8.79,8.79,0,0,1,2.5,4.69A12.85,12.85,0,0,1,65,62.1,12.6,12.6,0,0,1,64.81,64a.72.72,0,0,0,0,.23c0,.36-.1.65-.48.68h-.1c-.42,0-.62-.39-.65-.81,0,0,0,0,0-.06-.13-.62-.23-1.27-.33-1.91a19.29,19.29,0,0,0-.45-2.46C62,56.63,60.38,55.08,58,55.08a8.42,8.42,0,0,0-3,.61,13.42,13.42,0,0,0-3.85,2.4,53.34,53.34,0,0,0-8.29,8.22,62.65,62.65,0,0,0-6.28,9.74,98.3,98.3,0,0,0-9.35,25.51,56.24,56.24,0,0,0-1.17,8.8c0,.88-.07,1.72-.07,2.59a41.42,41.42,0,0,0,.49,6.28,25,25,0,0,0,3,8.55c1.71,3,3.59,4.37,7.09,4.53h.64c3.63,0,6.93-1.52,10.07-4a126.31,126.31,0,0,0,12.76-11.49A163.28,163.28,0,0,0,73,102c.26-.39,5.09-6.57,5.35-7a.42.42,0,0,1,.19,0c.19,0,.36.16.45.48a4.35,4.35,0,0,1,.17,1.17A2.27,2.27,0,0,1,78.86,98c-.71.91-1.84,2.33-3.36,4.31-1.2,1.55-2.37,3-3.53,4.5l-2.56,3.23A214.9,214.9,0,0,1,54.07,126a43.41,43.41,0,0,1-9.71,7A16.74,16.74,0,0,1,37,134.87a18,18,0,0,1-6.28-1.56c-2.59-1-4.73-3.78-6.41-8.31a42.62,42.62,0,0,1-2.17-13.47c0-1.39.06-2.82.19-4.21a78.62,78.62,0,0,1,5.6-23.17c4.7-11.37,11.33-23,22.4-29.27A19.93,19.93,0,0,1,53.9,53.2a8.07,8.07,0,0,1,2.92-.52m0-.25a8.59,8.59,0,0,0-3,.53,20.93,20.93,0,0,0-3.63,1.7c-12.12,6.84-18.65,20-22.5,29.39a78.84,78.84,0,0,0-5.62,23.25c-.13,1.39-.2,2.81-.2,4.23A43.33,43.33,0,0,0,24,125.08c1.71,4.6,3.92,7.45,6.56,8.47A18.13,18.13,0,0,0,37,135.12a17,17,0,0,0,7.49-1.93,43.21,43.21,0,0,0,9.77-7A214,214,0,0,0,69.6,110.24L72.17,107c1.12-1.39,2.27-2.87,3.53-4.5s2.11-2.71,2.81-3.59l.55-.71a2.41,2.41,0,0,0,.38-1.51,4.52,4.52,0,0,0-.17-1.27c-.17-.59-.51-.68-.7-.68a.65.65,0,0,0-.31.06.28.28,0,0,0-.1.09c-.12.19-1.41,1.85-2.66,3.46s-2.54,3.3-2.68,3.5a160.65,160.65,0,0,1-12.95,14.82,126.59,126.59,0,0,1-12.72,11.47c-3.38,2.64-6.62,3.93-9.92,3.93h-.64c-3.26-.16-5.13-1.35-6.87-4.41a24.75,24.75,0,0,1-2.95-8.46,41.18,41.18,0,0,1-.48-6.24c0-.85,0-1.66.06-2.52v-.06a56.92,56.92,0,0,1,1.16-8.76,98,98,0,0,1,9.33-25.44,61.71,61.71,0,0,1,6.25-9.7,53.26,53.26,0,0,1,8.25-8.18,13.27,13.27,0,0,1,3.78-2.36,8.12,8.12,0,0,1,2.89-.6c2.22,0,3.73,1.5,4.47,4.44a21.15,21.15,0,0,1,.45,2.43c.1.64.2,1.31.33,1.93a.19.19,0,0,0,0,.08c.07.63.41,1,.9,1h.1c.35,0,.74-.22.74-.94a.32.32,0,0,1,0-.14A12.23,12.23,0,0,0,65,59.59a9.14,9.14,0,0,0-2.57-4.83,8,8,0,0,0-4.54-2.27h-.11c-.32,0-.62,0-.93,0Z" transform="translate(-16.13 -11.61)"/><path class="cls-1" d="M89.77,111.63a7.43,7.43,0,0,1-1.85-.4c-.85-.27-1.61-1.24-2.31-3a13.73,13.73,0,0,1-.69-3.21c-.09-1-.13-2.7-.13-5.59a.55.55,0,0,0-.31.35,18.61,18.61,0,0,1-3,3.73,4,4,0,0,1-2.64,1.27c-.18,0-.35,0-.55,0l-.11,0a2.93,2.93,0,0,1-2.09-2.37,9.61,9.61,0,0,1-.2-1.87A5.24,5.24,0,0,1,76,99.2a14.14,14.14,0,0,1,6.43-10,4.61,4.61,0,0,1,2.27-.63,5.24,5.24,0,0,1,3.74,1.62,2.81,2.81,0,0,1,.82,2,3.82,3.82,0,0,1-.1.84c-.53,3-.89,5.72-1.1,8.33a25.38,25.38,0,0,0-.16,2.74c0,3.65.59,5.51,1.75,5.51a3,3,0,0,0,1.64-.69,27.83,27.83,0,0,0,6.38-6.8c3.44-5.32,5.22-8.11,5.59-8.79.17-.35.43-.78.73-.78.55,0,.61.81.61,1.42a4.86,4.86,0,0,1-.63,2.63l-4.6,7a23.87,23.87,0,0,1-2.77,3.51C93.88,110.13,91.65,111.63,89.77,111.63ZM85.46,90.88a1.71,1.71,0,0,0-.67.3,10.12,10.12,0,0,0-3.23,3.51,22.9,22.9,0,0,0-2.77,7s0,.08,0,.16c0,.28,0,.39.27.39,0,0,.13,0,.3-.19a.24.24,0,0,1,.12-.07,12.25,12.25,0,0,0,1.8-2.14,53.88,53.88,0,0,0,4.2-8.17,1.64,1.64,0,0,0,.28-.56C85.79,91,85.75,90.88,85.46,90.88Z" transform="translate(-16.13 -11.61)"/><path class="cls-1" d="M84.69,88.64a5.14,5.14,0,0,1,3.66,1.59,2.75,2.75,0,0,1,.77,1.91A3.94,3.94,0,0,1,89,93c-.49,2.75-.88,5.53-1.11,8.35-.09.91-.16,1.81-.16,2.75,0,3.76.62,5.63,1.88,5.63a3,3,0,0,0,1.72-.71,27.74,27.74,0,0,0,6.41-6.83c3.33-5.14,5.21-8.09,5.6-8.8.22-.49.45-.71.61-.71.32,0,.49.42.49,1.29a4.76,4.76,0,0,1-.62,2.56l-4.6,7A23.93,23.93,0,0,1,96.5,107c-2.65,3-4.88,4.53-6.73,4.53a7.16,7.16,0,0,1-1.81-.39c-.81-.26-1.56-1.23-2.24-2.88a14.14,14.14,0,0,1-.68-3.17c-.09-1.07-.12-3-.12-5.73h-.1c-.16,0-.33.16-.45.45a18.84,18.84,0,0,1-3,3.69,3.83,3.83,0,0,1-2.55,1.23,4.79,4.79,0,0,1-.62-.06,2.79,2.79,0,0,1-2-2.27,9.41,9.41,0,0,1-.2-1.85,5.48,5.48,0,0,1,.13-1.29,14,14,0,0,1,6.38-10,4.46,4.46,0,0,1,2.2-.62m-5.6,13.76a.6.6,0,0,0,.39-.22s0,0,0,0a11.15,11.15,0,0,0,1.91-2.2,54.47,54.47,0,0,0,4.21-8.19,1.41,1.41,0,0,0,.29-.61c0-.26-.16-.39-.46-.39a1.89,1.89,0,0,0-.74.32,10.21,10.21,0,0,0-3.27,3.56,22.86,22.86,0,0,0-2.78,7.06c.06.19-.1.71.42.71m5.6-14a4.7,4.7,0,0,0-2.33.65,14.26,14.26,0,0,0-6.5,10.15,5.76,5.76,0,0,0-.13,1.33,9.87,9.87,0,0,0,.19,1.9,3.06,3.06,0,0,0,2.18,2.46l.13,0a3.81,3.81,0,0,0,.57.06,4.09,4.09,0,0,0,2.73-1.3,19.3,19.3,0,0,0,3-3.74l.08-.15c0,2.76,0,4.36.13,5.31a13.68,13.68,0,0,0,.69,3.23c.73,1.77,1.51,2.76,2.4,3a7.19,7.19,0,0,0,1.89.4c1.92,0,4.18-1.51,6.92-4.61a24.26,24.26,0,0,0,2.78-3.53l4.59-7a5,5,0,0,0,.66-2.7c0-.38,0-1.55-.74-1.55-.3,0-.58.29-.85.86S101,96.7,97.55,102a27.57,27.57,0,0,1-6.35,6.77,2.88,2.88,0,0,1-1.56.66c-1.06,0-1.62-1.86-1.62-5.38a25,25,0,0,1,.16-2.72c.21-2.62.57-5.35,1.1-8.34a3.71,3.71,0,0,0,.1-.85,2.94,2.94,0,0,0-.85-2.08,5.4,5.4,0,0,0-3.84-1.67Zm-5.76,13.3a22.53,22.53,0,0,1,2.74-6.93,9.92,9.92,0,0,1,3.19-3.48,1.87,1.87,0,0,1,.6-.28c.2,0,.2.07.2.14s0,.12-.25.47A53.18,53.18,0,0,1,81.2,99.8,10.48,10.48,0,0,1,79.34,102h0l0,0h0a.78.78,0,0,1-.2.16c-.12,0-.14,0-.15-.27a1.15,1.15,0,0,0,0-.19Z" transform="translate(-16.13 -11.61)"/><path class="cls-1" d="M104.05,112.34a1.22,1.22,0,0,1-1.19-.78,6.31,6.31,0,0,1-.46-2.39l.29-12.34c.11-3.7.16-6.36.16-8.64a3.16,3.16,0,0,1,.17-1,1.22,1.22,0,0,1,1.28-.67,1.83,1.83,0,0,1,1.08.35c.6.43.9,1.87.9,4.41v6.94a.42.42,0,0,0,.23-.29c0-.08.25-.44.92-1.58l.55-.93A29,29,0,0,1,112.57,90c2.09-2,3.48-3,4.23-3,.51,0,1.1.12,1.1.58a2.41,2.41,0,0,1-1.26,1.63A30.37,30.37,0,0,0,113,93a28.26,28.26,0,0,0-4.9,8.09,29.69,29.69,0,0,0-2.16,9.83,4.17,4.17,0,0,1-.07.89c-.12.37-.6.53-1.55.53Z" transform="translate(-16.13 -11.61)"/><path class="cls-1" d="M104.3,86.67a1.75,1.75,0,0,1,1,.32c.55.39.84,1.82.84,4.31v7.09a.51.51,0,0,0,.49-.39c0-.1.51-.91,1.45-2.49a28.72,28.72,0,0,1,4.57-5.44c2-2,3.43-3,4.14-3s1,.16,1,.45a2.31,2.31,0,0,1-1.2,1.53,33,33,0,0,0-3.72,3.85,28.09,28.09,0,0,0-4.92,8.12,29.83,29.83,0,0,0-2.17,9.87,5.1,5.1,0,0,1-.06.88c-.1.29-.55.42-1.43.42h-.22a1.09,1.09,0,0,1-1.07-.71,6.13,6.13,0,0,1-.46-2.33l.3-12.34c.09-3.2.16-6.08.16-8.64a2.94,2.94,0,0,1,.16-.94c.16-.39.55-.58,1.16-.58m0-.26a1.36,1.36,0,0,0-1.4.74,3.35,3.35,0,0,0-.18,1c0,2.28,0,4.94-.16,8.64l-.29,12.33a6.41,6.41,0,0,0,.47,2.43,1.36,1.36,0,0,0,1.31.88h.22c.73,0,1.5-.08,1.67-.6a4.88,4.88,0,0,0,.08-1,29.39,29.39,0,0,1,2.15-9.77,28.05,28.05,0,0,1,4.87-8,30,30,0,0,1,3.67-3.81A2.52,2.52,0,0,0,118,87.54c0-.64-.89-.69-1.22-.7h0c-.52,0-1.51.31-4.33,3a28.85,28.85,0,0,0-4.61,5.49l-.53.9c-.7,1.18-.88,1.49-.93,1.62V91.3c0-2.59-.32-4.06-1-4.52a2,2,0,0,0-1.16-.37Z" transform="translate(-16.13 -11.61)"/><path class="cls-1" d="M126.87,120.33a8.2,8.2,0,0,1-3.39-.85c-2.29-1.16-3.85-4.22-4.77-9.35a51.55,51.55,0,0,1-.75-8.83c0-.7.08-1.9.17-3.41a91.45,91.45,0,0,1,8.62-32.38,103,103,0,0,1,9.33-16.88c1.73-2.54,4-5.35,7.4-6.91a8.77,8.77,0,0,1,3.45-.75,5.27,5.27,0,0,1,3.26,1.22,6.1,6.1,0,0,1,2.21,5,28,28,0,0,1-1.52,7.91,50.68,50.68,0,0,1-5,11.74C142,73.67,138,80.25,132.39,86L130,88.44a59.4,59.4,0,0,1-7.62,7.2c-.5.41-1.09,2.17-1.09,8.25q0,.36,0,1.29l0,1.69a32.29,32.29,0,0,0,1.09,6.47,14.59,14.59,0,0,0,.93,2.6,3.41,3.41,0,0,0,3.29,2,7.56,7.56,0,0,0,3.91-1.37,23.36,23.36,0,0,0,4.16-3,58.14,58.14,0,0,0,8.62-10.17L150.87,92a2.75,2.75,0,0,1,1.11-.42c.23,0,.62.1.62.71a5.6,5.6,0,0,1-.4,1.67c-7.51,11.77-13.56,19.53-18,23.1a13.35,13.35,0,0,1-5.62,3A7.54,7.54,0,0,1,126.87,120.33Zm-3.7-28.48a5.49,5.49,0,0,1,.44-.39,106.57,106.57,0,0,0,7.92-7.76,88.89,88.89,0,0,0,8.66-11.5l3.11-4.92A49.26,49.26,0,0,0,149.88,51a16.87,16.87,0,0,0,.49-3.63,7.67,7.67,0,0,0-.48-2.61,2.61,2.61,0,0,0-2.5-1.86,3.79,3.79,0,0,0-.78.1,9.12,9.12,0,0,0-5.24,3.48c-5.21,6.45-8.74,13.76-11.51,20.07a83.39,83.39,0,0,0-5.36,17.33c-1.09,5.37-1.49,7.55-1.49,7.71a.63.63,0,0,0,.08.29Z" transform="translate(-16.13 -11.61)"/><path class="cls-1" d="M146.93,41.09a5.14,5.14,0,0,1,3.18,1.2,6,6,0,0,1,2.17,4.92,28,28,0,0,1-1.53,7.87,50.43,50.43,0,0,1-5,11.72c-3.89,6.73-7.93,13.4-13.47,19.06l-2.42,2.49a59.43,59.43,0,0,1-7.61,7.19c-.75.61-1.13,3.4-1.13,8.35,0,.42,0,1.42.06,3a31.92,31.92,0,0,0,1.1,6.5,14.56,14.56,0,0,0,.94,2.63,3.52,3.52,0,0,0,3.4,2.1,7.66,7.66,0,0,0,4-1.39,23.93,23.93,0,0,0,4.18-3,58.82,58.82,0,0,0,8.64-10.2L151,92.11a2.47,2.47,0,0,1,1-.36c.33,0,.49.2.49.58a5.27,5.27,0,0,1-.39,1.62q-11.31,17.73-18,23a13.18,13.18,0,0,1-5.57,3,7.42,7.42,0,0,1-1.69.19,8.05,8.05,0,0,1-3.33-.84c-2.23-1.13-3.79-4.2-4.69-9.25a50.38,50.38,0,0,1-.75-8.81c0-.68.07-1.81.17-3.4a91.07,91.07,0,0,1,8.6-32.33,102.6,102.6,0,0,1,9.33-16.87c1.94-2.85,4.14-5.41,7.35-6.86a8.48,8.48,0,0,1,3.39-.75M123,92h.17a4,4,0,0,0,.51-.42,106.52,106.52,0,0,0,7.93-7.77,88.6,88.6,0,0,0,8.68-11.52l3.11-4.92A49.43,49.43,0,0,0,150,51a17.61,17.61,0,0,0,.49-3.66,7.75,7.75,0,0,0-.49-2.65,2.75,2.75,0,0,0-2.62-1.95,4.25,4.25,0,0,0-.81.1,9.28,9.28,0,0,0-5.31,3.53c-4.92,6.09-8.42,13-11.52,20.1a83.08,83.08,0,0,0-5.38,17.35c-1,5-1.49,7.54-1.49,7.74A.84.84,0,0,0,123,92m23.92-51.14a9,9,0,0,0-3.49.76c-3.48,1.58-5.72,4.4-7.46,7a103.25,103.25,0,0,0-9.35,16.9A91.88,91.88,0,0,0,118,97.88c-.11,1.76-.16,2.77-.16,3.42a50.72,50.72,0,0,0,.75,8.85c.92,5.18,2.5,8.26,4.83,9.44a8.19,8.19,0,0,0,3.44.87,7.83,7.83,0,0,0,1.75-.2,13.65,13.65,0,0,0,5.68-3.07c4.44-3.56,10.5-11.34,18-23.1a.08.08,0,0,0,0,0,5.5,5.5,0,0,0,.41-1.71c0-.75-.52-.83-.75-.83a2.7,2.7,0,0,0-1.12.38.2.2,0,0,0-.09.09l-7.55,11.39a58.26,58.26,0,0,1-8.6,10.15,23,23,0,0,1-4.13,3,7.46,7.46,0,0,1-3.85,1.35,3.24,3.24,0,0,1-3.17-2,13.53,13.53,0,0,1-.92-2.57,31.33,31.33,0,0,1-1.09-6.45c0-.65,0-1.21,0-1.67,0-.62,0-1.06,0-1.3,0-6.35.65-7.83,1-8.15a60.39,60.39,0,0,0,7.64-7.22L132.49,86c5.58-5.71,9.57-12.3,13.5-19.12a50.56,50.56,0,0,0,5-11.77,28.08,28.08,0,0,0,1.53-7.93,6.24,6.24,0,0,0-2.26-5.13,5.4,5.4,0,0,0-3.34-1.25ZM123.16,91.68a.3.3,0,0,1,0-.12c0-.19.41-2.4,1.48-7.69A83.13,83.13,0,0,1,130,66.57c2.76-6.3,6.29-13.61,11.49-20a9.05,9.05,0,0,1,5.17-3.44,3.4,3.4,0,0,1,.75-.09,2.49,2.49,0,0,1,2.38,1.79,7.28,7.28,0,0,1,.47,2.55,17.18,17.18,0,0,1-.48,3.6,49.46,49.46,0,0,1-6.57,16.27l-3.11,4.92a88.72,88.72,0,0,1-8.65,11.49,106.33,106.33,0,0,1-7.91,7.75c-.18.16-.29.26-.36.31Z" transform="translate(-16.13 -11.61)"/><path class="cls-1" d="M161.4,111.63a7.61,7.61,0,0,1-1.85-.4c-.85-.27-1.6-1.24-2.31-3a13.62,13.62,0,0,1-.69-3.21c-.09-1-.13-2.66-.13-5.59-.12,0-.21.14-.3.35a19.32,19.32,0,0,1-3,3.73,4,4,0,0,1-2.65,1.27,3.84,3.84,0,0,1-.55-.06h-.1a2.94,2.94,0,0,1-2.1-2.37,9.57,9.57,0,0,1-.19-1.87,5.78,5.78,0,0,1,.13-1.32,14.14,14.14,0,0,1,6.43-10,4.61,4.61,0,0,1,2.27-.63,5.26,5.26,0,0,1,3.75,1.62,2.86,2.86,0,0,1,.81,2,4.38,4.38,0,0,1-.09.84c-.53,3-.89,5.72-1.1,8.33a25.38,25.38,0,0,0-.16,2.74c0,3.65.58,5.51,1.75,5.51a3,3,0,0,0,1.64-.69,27.61,27.61,0,0,0,6.37-6.8c3.45-5.31,5.22-8.11,5.6-8.79.23-.5.49-.78.72-.78.62,0,.62,1.07.62,1.42a4.86,4.86,0,0,1-.64,2.63l-4.59,7a24.55,24.55,0,0,1-2.77,3.51C165.52,110.13,163.29,111.63,161.4,111.63Zm-4.3-20.75a1.79,1.79,0,0,0-.68.3,10,10,0,0,0-3.22,3.51,22.41,22.41,0,0,0-2.77,7s0,.08,0,.16c0,.28,0,.39.27.39,0,0,.13,0,.3-.19a.29.29,0,0,1,.12-.07A12.72,12.72,0,0,0,153,99.87a53.86,53.86,0,0,0,4.19-8.17,1.64,1.64,0,0,0,.28-.56C157.42,91,157.39,90.88,157.1,90.88Z" transform="translate(-16.13 -11.61)"/><path class="cls-1" d="M156.32,88.64A5.14,5.14,0,0,1,160,90.23a2.72,2.72,0,0,1,.78,1.91,4,4,0,0,1-.1.81c-.49,2.75-.87,5.53-1.1,8.35a24.92,24.92,0,0,0-.16,2.75c0,3.76.61,5.63,1.87,5.63A3,3,0,0,0,163,109a27.74,27.74,0,0,0,6.41-6.83c3.33-5.14,5.21-8.09,5.6-8.8.23-.49.45-.71.61-.71.33,0,.49.42.49,1.29a4.67,4.67,0,0,1-.62,2.56l-4.59,7a24.62,24.62,0,0,1-2.75,3.5c-2.66,3-4.89,4.53-6.74,4.53a7.25,7.25,0,0,1-1.81-.39c-.81-.26-1.55-1.23-2.23-2.88a13.61,13.61,0,0,1-.68-3.17c-.1-1.07-.13-3-.13-5.73h-.1c-.16,0-.32.16-.45.45a18.79,18.79,0,0,1-3,3.69,3.87,3.87,0,0,1-2.56,1.23,4.65,4.65,0,0,1-.61-.06,2.81,2.81,0,0,1-2-2.27,9.37,9.37,0,0,1-.19-1.85,6.07,6.07,0,0,1,.12-1.29,14,14,0,0,1,6.38-10,4.49,4.49,0,0,1,2.2-.62m-5.6,13.76a.6.6,0,0,0,.39-.22s0,0,0,0a10.83,10.83,0,0,0,1.91-2.2,54.47,54.47,0,0,0,4.21-8.19,1.29,1.29,0,0,0,.29-.61c0-.26-.16-.39-.45-.39a1.78,1.78,0,0,0-.74.32,10,10,0,0,0-3.27,3.56,22.89,22.89,0,0,0-2.79,7.06c.07.19-.1.71.42.71m5.6-14A4.69,4.69,0,0,0,154,89a14.25,14.25,0,0,0-6.51,10.15,5.76,5.76,0,0,0-.13,1.33,9.91,9.91,0,0,0,.2,1.9,3,3,0,0,0,2.18,2.46l.13,0a3.55,3.55,0,0,0,.56.06,4.07,4.07,0,0,0,2.73-1.3,19,19,0,0,0,3.06-3.74,1.07,1.07,0,0,1,.07-.15c0,2.75.05,4.35.13,5.31a13.81,13.81,0,0,0,.7,3.23c.72,1.77,1.51,2.76,2.39,3a7.27,7.27,0,0,0,1.89.4c1.92,0,4.19-1.51,6.93-4.61a23.58,23.58,0,0,0,2.77-3.53l4.6-7a5,5,0,0,0,.66-2.7c0-.38,0-1.55-.75-1.55-.29,0-.58.29-.84.86s-2.15,3.46-5.59,8.77a27.54,27.54,0,0,1-6.34,6.77,2.91,2.91,0,0,1-1.57.66c-1.06,0-1.62-1.86-1.62-5.38a25,25,0,0,1,.16-2.72c.21-2.62.57-5.35,1.1-8.34a3.77,3.77,0,0,0,.1-.85,2.93,2.93,0,0,0-.84-2.08,5.44,5.44,0,0,0-3.85-1.67Zm-5.76,13.3a22.56,22.56,0,0,1,2.75-6.93,9.92,9.92,0,0,1,3.19-3.48,1.77,1.77,0,0,1,.6-.28c.2,0,.2.07.2.14s0,.12-.25.47a55,55,0,0,1-4.21,8.19A11.12,11.12,0,0,1,151,102h0l0,0h0a.7.7,0,0,1-.21.16c-.12,0-.13,0-.14-.27a1.11,1.11,0,0,0,0-.19Z" transform="translate(-16.13 -11.61)"/><path class="cls-1" d="M122.76,238.55c-1.52,0-2.62-.86-3.36-2.64-1.32-3.88-2.31-10.47-2.92-19.59-.53-8.09-.81-16.84-.81-26,0-2.36,0-4.71.06-7v-.12c.19-5.29.65-10.77,1.36-16.29a10.54,10.54,0,0,0,.19-1.51c0-.62-.14-.62-.42-.62s-1,.12-6,1.2c-2.44.51-5.1,1-7.9,1.55a2.6,2.6,0,0,0-2.24,1.86,136.2,136.2,0,0,0-7.7,28.72,79.72,79.72,0,0,0-.8,8.34.88.88,0,0,0,.47.88c.42.18.66.44.66.73a.92.92,0,0,1-.15.46,1.49,1.49,0,0,1-1.33,1h0c-1.17,0-1.78-.74-1.85-2.2v-.72c0-1.86.11-3.51.22-5.05a73.16,73.16,0,0,1,1.37-11.22c.74-3.11,1.49-6.22,2.26-9.3,1-3.83,2.06-7.56,3.24-11.08a1.06,1.06,0,0,0,.22-.57A.43.43,0,0,0,97,169a1.25,1.25,0,0,0-.45.14,65.5,65.5,0,0,0-13.52,5.56l3.39.35c.68.07,1,.31,1,.71a.56.56,0,0,1-.62.49l-.27,0a16.71,16.71,0,0,0-4,.61A5.52,5.52,0,0,1,81,177a6.5,6.5,0,0,1-1.78-.26c-.74-.24-1.18-.55-1.26-.9a3.52,3.52,0,0,1-.1-.61,2.07,2.07,0,0,1,.65-1.39,23.24,23.24,0,0,1,5.28-3.49l.62-.32a53.7,53.7,0,0,1,13-4.48,3.15,3.15,0,0,0,2.4-2.08l.75-1.76c2.12-5.09,4.89-10.8,8.22-17a87.07,87.07,0,0,1,7-10.89,12.49,12.49,0,0,1,3.66-3.47A3.24,3.24,0,0,1,121,130c2.15,0,3.24,2.05,3.24,6.09a84.78,84.78,0,0,1-.94,11.73c-.23,2-.67,6.16-1.36,12.82,0,.53.2.76.68.76a1.51,1.51,0,0,0,.36-.06,12.16,12.16,0,0,1,2.88-.33,12.32,12.32,0,0,1,1.5.1l1.81.1a12.19,12.19,0,0,1,5.75,1.63,5.09,5.09,0,0,1,1.13,1c.48.49.71.86.71,1.16s-.12.71-1,.71a1.85,1.85,0,0,1-1.28-.45,6.56,6.56,0,0,0-5-1.65,58.53,58.53,0,0,0-6.85.42,1.18,1.18,0,0,0-1.25,1.27A286.53,286.53,0,0,0,119.94,195c0,18.53.74,31.82,2.2,39.5a2.23,2.23,0,0,0,1.51,2c.56.15.86.45.86.9S124.11,238.55,122.76,238.55Zm-2.27-105c-.14,0-.3.14-.51.43a86.7,86.7,0,0,0-11.06,17.69l-1.62,3.3c-1.41,2.77-2.75,5.61-4,8.44a1.67,1.67,0,0,0-.19.63c0,.06,0,.16.26.16a2.59,2.59,0,0,0,.43-.06c4.13-.85,8.13-1.51,11.89-2,1.32-.17,1.7-.29,1.9-.86.11-.27.76-5.12,1.81-13,.57-4,1-8.35,1.42-13.26a1.64,1.64,0,0,1,0-.32l0-.34,0-.29c0-.22,0-.38-.07-.46A.35.35,0,0,0,120.49,133.51Z" transform="translate(-16.13 -11.61)"/><path class="cls-1" d="M121,130.11c2.07,0,3.11,2,3.11,6a83,83,0,0,1-.94,11.71q-.34,3-1.36,12.82c0,.62.26.91.81.91a1.34,1.34,0,0,0,.39-.07,12.58,12.58,0,0,1,2.85-.32,10.76,10.76,0,0,1,1.49.1l1.81.1a12.08,12.08,0,0,1,5.7,1.61,5.43,5.43,0,0,1,1.1.94c.45.46.68.81.68,1.07s-.29.58-.85.58a1.68,1.68,0,0,1-1.19-.42,6.7,6.7,0,0,0-5.08-1.68,61.11,61.11,0,0,0-6.87.42,1.3,1.3,0,0,0-1.36,1.39A286.5,286.5,0,0,0,119.81,195q0,28,2.21,39.52a2.33,2.33,0,0,0,1.58,2.07q.78.19.78.78c-.07.71-.62,1.07-1.62,1.07-1.46,0-2.53-.84-3.24-2.56q-2-5.82-2.91-19.55-.83-12.44-.81-26c0-2.4,0-4.79.06-7.16.2-5.27.65-10.71,1.37-16.28a11.75,11.75,0,0,0,.19-1.52c0-.68-.19-.74-.55-.74s-2.27.39-6,1.19c-2.62.55-5.28,1.07-7.9,1.56a2.71,2.71,0,0,0-2.33,1.94A135.86,135.86,0,0,0,93,198.05a79.92,79.92,0,0,0-.81,8.36,1,1,0,0,0,.55,1c.39.16.58.39.58.61a.74.74,0,0,1-.13.39,1.37,1.37,0,0,1-1.23.91c-1.07,0-1.65-.68-1.71-2.07v-.71c0-1.69.09-3.37.22-5a72.29,72.29,0,0,1,1.36-11.2c.75-3.11,1.49-6.22,2.27-9.29.94-3.73,2-7.42,3.24-11.07a1.22,1.22,0,0,0,.22-.62.54.54,0,0,0-.48-.45,1.43,1.43,0,0,0-.52.16,63.8,63.8,0,0,0-13.86,5.76l3.79.39c.62.06.91.26.91.58s-.2.36-.49.36l-.26,0a16.76,16.76,0,0,0-4,.61,5.61,5.61,0,0,1-1.59.23,6.68,6.68,0,0,1-1.75-.26c-.71-.23-1.1-.52-1.16-.81a3.07,3.07,0,0,1-.1-.58,1.92,1.92,0,0,1,.61-1.3,22.63,22.63,0,0,1,5.25-3.46l.61-.33a53.42,53.42,0,0,1,13-4.46,3.31,3.31,0,0,0,2.49-2.17l.74-1.75c2-4.89,4.76-10.55,8.23-17a86.37,86.37,0,0,1,7-10.88,12.38,12.38,0,0,1,3.63-3.43,3.12,3.12,0,0,1,1.52-.42M103.4,164.29a2.91,2.91,0,0,0,.46-.06c3.91-.81,7.89-1.49,11.88-2,1.29-.16,1.78-.29,2-.93.1-.2.68-4.54,1.82-13,.61-4.34,1.06-8.77,1.42-13.27,0-.1,0-.33-.07-.68l0-.26c0-.29.06-.68-.46-.68-.19,0-.38.16-.61.49a86.32,86.32,0,0,0-11.07,17.7l-1.62,3.3q-2.13,4.19-4,8.45a1.86,1.86,0,0,0-.2.68c0,.2.13.29.39.29M121,129.85a3.38,3.38,0,0,0-1.65.46,12.43,12.43,0,0,0-3.71,3.51,88.76,88.76,0,0,0-7,10.9c-3.33,6.17-6.1,11.88-8.23,17l-.75,1.75a3,3,0,0,1-2.32,2A53.83,53.83,0,0,0,84.31,170l-.61.32a23,23,0,0,0-5.29,3.5,2.18,2.18,0,0,0-.71,1.49,3.6,3.6,0,0,0,.11.63c.09.41.55.75,1.33,1a6.54,6.54,0,0,0,1.83.27,5.79,5.79,0,0,0,1.66-.23,16.35,16.35,0,0,1,4-.61l.23,0h0a.67.67,0,0,0,.76-.57c0-.51-.38-.8-1.13-.88l-3-.3a65.76,65.76,0,0,1,13.11-5.35l.06,0a1,1,0,0,1,.4-.12h0c.09,0,.21.14.22.2a1.08,1.08,0,0,1-.19.47l0,.05c-1.18,3.52-2.27,7.25-3.24,11.09-.77,3-1.52,6.17-2.24,9.19l0,.11a73.4,73.4,0,0,0-1.36,11.24c-.12,1.52-.19,3.18-.23,5.06v.72c.09,1.92,1.12,2.33,2,2.33a1.66,1.66,0,0,0,1.47-1.07,1,1,0,0,0,.15-.49c0-.34-.27-.65-.74-.85a.77.77,0,0,1-.4-.76,82.61,82.61,0,0,1,.81-8.32,136.51,136.51,0,0,1,7.69-28.69,2.47,2.47,0,0,1,2.13-1.78c2.8-.52,5.46-1,7.91-1.56,5.09-1.1,5.83-1.19,5.94-1.19s.29,0,.29.49a10.29,10.29,0,0,1-.19,1.48c-.71,5.55-1.17,11-1.36,16.32,0,2.2-.07,4.69-.07,7.16,0,9.16.28,17.92.81,26,.62,9.13,1.6,15.73,2.93,19.61.75,1.82,1.92,2.74,3.48,2.74s1.82-.71,1.87-1.31c0-.38-.16-.84-1-1a2.09,2.09,0,0,1-1.39-1.86c-1.46-7.69-2.2-21-2.2-39.49a285.86,285.86,0,0,1,1.49-29.72,1,1,0,0,1,1.12-1.16,60.79,60.79,0,0,1,6.85-.42,6.38,6.38,0,0,1,4.9,1.61,2,2,0,0,0,1.37.49c1,0,1.1-.59,1.1-.84s-.24-.73-.75-1.25a5.09,5.09,0,0,0-1.16-1,12.27,12.27,0,0,0-5.81-1.65l-1.81-.1a12.06,12.06,0,0,0-1.5-.1,12.41,12.41,0,0,0-2.91.34,1.39,1.39,0,0,1-.33.05c-.34,0-.55-.11-.55-.65.69-6.63,1.13-10.82,1.36-12.79a84.92,84.92,0,0,0,.94-11.74c0-4.13-1.14-6.22-3.37-6.22ZM103.4,164a.49.49,0,0,1-.14,0,1.93,1.93,0,0,1,.18-.59c1.23-2.84,2.56-5.68,4-8.44l1.62-3.31a86.05,86.05,0,0,1,11-17.65c.25-.36.37-.39.41-.39s.15,0,.17,0,0,.19,0,.3v.09l0,.23v.05c0,.13,0,.24,0,.34a2.36,2.36,0,0,0,0,.34c-.39,4.89-.85,9.22-1.42,13.21-1,7.86-1.69,12.66-1.79,13s-.48.61-1.81.78c-3.76.46-7.77,1.12-11.9,2a2.16,2.16,0,0,1-.4.06Z" transform="translate(-16.13 -11.61)"/><path class="cls-1" d="M138.94,206.34a8.16,8.16,0,0,1-3.38-.85c-2.29-1.16-3.85-4.22-4.77-9.36a51.35,51.35,0,0,1-.75-8.82c0-.71.08-2,.17-3.41a91.45,91.45,0,0,1,8.62-32.38,103.45,103.45,0,0,1,9.33-16.89c1.73-2.53,4-5.34,7.4-6.9A8.79,8.79,0,0,1,159,127a5.23,5.23,0,0,1,3.26,1.23,6.1,6.1,0,0,1,2.21,5,27.85,27.85,0,0,1-1.52,7.9,51,51,0,0,1-5,11.75C154,159.67,150,166.26,144.47,172l-2.42,2.49a60.1,60.1,0,0,1-7.62,7.2c-.5.4-1.09,2.17-1.09,8.25,0,.25,0,.71,0,1.37l0,1.6a32.26,32.26,0,0,0,1.09,6.48,15.18,15.18,0,0,0,.93,2.6,3.41,3.41,0,0,0,3.29,2,7.56,7.56,0,0,0,3.91-1.37,23.87,23.87,0,0,0,4.16-3,58.88,58.88,0,0,0,8.62-10.17L163,178a2.62,2.62,0,0,1,1.11-.41c.23,0,.62.09.62.71a5.48,5.48,0,0,1-.4,1.66c-7.51,11.78-13.56,19.54-18,23.11a13.46,13.46,0,0,1-5.62,3A7.56,7.56,0,0,1,138.94,206.34Zm-3.69-28.48s.08-.07.44-.39a106.57,106.57,0,0,0,7.92-7.76,88.31,88.31,0,0,0,8.66-11.51l3.11-4.92A49.21,49.21,0,0,0,162,137a16.87,16.87,0,0,0,.49-3.63,7.62,7.62,0,0,0-.48-2.61,2.61,2.61,0,0,0-2.5-1.86,3.74,3.74,0,0,0-.78.09,9.14,9.14,0,0,0-5.24,3.48c-5.21,6.45-8.74,13.77-11.51,20.08a83.12,83.12,0,0,0-5.36,17.32c-1.09,5.37-1.49,7.56-1.49,7.71a.71.71,0,0,0,.08.3Z" transform="translate(-16.13 -11.61)"/><path class="cls-1" d="M159,127.1a5.14,5.14,0,0,1,3.18,1.2,6,6,0,0,1,2.17,4.92,27.89,27.89,0,0,1-1.53,7.86,50.24,50.24,0,0,1-5,11.72c-3.89,6.73-7.93,13.4-13.47,19.07L142,174.36a60.14,60.14,0,0,1-7.61,7.19q-1.12.91-1.13,8.35c0,.42,0,1.42.06,3a31.92,31.92,0,0,0,1.1,6.5,14.2,14.2,0,0,0,.94,2.62,3.51,3.51,0,0,0,3.4,2.11,7.76,7.76,0,0,0,4-1.39,24.46,24.46,0,0,0,4.18-3,58.82,58.82,0,0,0,8.64-10.2l7.54-11.4a2.58,2.58,0,0,1,1-.35c.33,0,.49.19.49.58a5.27,5.27,0,0,1-.39,1.62q-11.31,17.72-18,23a13.29,13.29,0,0,1-5.57,3,7.42,7.42,0,0,1-1.69.19,8.05,8.05,0,0,1-3.33-.84q-3.35-1.69-4.69-9.26a50.18,50.18,0,0,1-.75-8.8c0-.68.07-1.81.17-3.4a91.18,91.18,0,0,1,8.6-32.34,102.91,102.91,0,0,1,9.33-16.86c1.94-2.85,4.14-5.41,7.35-6.87a8.64,8.64,0,0,1,3.39-.74M135.09,178h.17a6.5,6.5,0,0,0,.51-.43,104.51,104.51,0,0,0,7.93-7.76,88.7,88.7,0,0,0,8.68-11.53l3.11-4.92a49.46,49.46,0,0,0,6.6-16.34,17.61,17.61,0,0,0,.49-3.66,7.81,7.81,0,0,0-.49-2.66,2.75,2.75,0,0,0-2.62-1.94,3.57,3.57,0,0,0-.81.1,9.28,9.28,0,0,0-5.31,3.53c-4.92,6.08-8.42,13-11.52,20.1a83.08,83.08,0,0,0-5.38,17.35c-1,4.95-1.49,7.54-1.49,7.73a.91.91,0,0,0,.13.43M159,126.84a8.9,8.9,0,0,0-3.5.77c-3.47,1.58-5.71,4.4-7.45,7a103.67,103.67,0,0,0-9.35,16.9,92,92,0,0,0-8.63,32.43c-.09,1.51-.16,2.71-.16,3.42a50.8,50.8,0,0,0,.75,8.85c.92,5.17,2.5,8.26,4.83,9.44a8.34,8.34,0,0,0,3.44.87,7.83,7.83,0,0,0,1.75-.2,13.65,13.65,0,0,0,5.68-3.07c4.44-3.57,10.5-11.34,18-23.1,0,0,0,0,0,0a5.5,5.5,0,0,0,.41-1.71c0-.76-.52-.84-.75-.84a2.61,2.61,0,0,0-1.12.39.24.24,0,0,0-.09.08l-7.55,11.4a58.63,58.63,0,0,1-8.6,10.15,23,23,0,0,1-4.13,3,7.39,7.39,0,0,1-3.85,1.36,3.24,3.24,0,0,1-3.17-2,13.78,13.78,0,0,1-.92-2.57,31.54,31.54,0,0,1-1.09-6.45c0-.66,0-1.21,0-1.67,0-.62,0-1.06,0-1.3,0-6.35.65-7.84,1-8.16a59.6,59.6,0,0,0,7.64-7.21l2.42-2.48c5.58-5.71,9.57-12.3,13.5-19.12a50.82,50.82,0,0,0,5-11.78,28,28,0,0,0,1.53-7.92,6.23,6.23,0,0,0-2.26-5.13,5.42,5.42,0,0,0-3.34-1.26Zm-23.77,50.85a.32.32,0,0,1,0-.13c0-.18.41-2.39,1.48-7.68a82.76,82.76,0,0,1,5.36-17.3c2.76-6.3,6.29-13.61,11.49-20a9,9,0,0,1,5.17-3.44,3.4,3.4,0,0,1,.75-.09,2.49,2.49,0,0,1,2.38,1.78,7.33,7.33,0,0,1,.47,2.56,17.18,17.18,0,0,1-.48,3.6,49.46,49.46,0,0,1-6.57,16.27l-3.11,4.92a89.41,89.41,0,0,1-8.65,11.49,106.28,106.28,0,0,1-7.91,7.74l-.36.32Z" transform="translate(-16.13 -11.61)"/><path class="cls-1" d="M163.61,194.59a5.17,5.17,0,0,1-2-.53,4,4,0,0,1-1.94-2.63,11.5,11.5,0,0,1-.56-3.44,9.13,9.13,0,0,1,.23-2.1,18.11,18.11,0,0,1,2.42-6.23,6.64,6.64,0,0,1,2.87-2.54,6.09,6.09,0,0,1,1.83-.36,2.91,2.91,0,0,1,.51,0c1.28.13,2,.45,2.27,1.78a7.46,7.46,0,0,1,.06.84,7.81,7.81,0,0,1-1.08,3.49c-.9,2-2.3,4.33-5.19,5.15a.65.65,0,0,0-.48.36,1.75,1.75,0,0,0-.17.87v.58a4.69,4.69,0,0,0,.64,2.21.86.86,0,0,0,.62.29,1.89,1.89,0,0,0,.82-.25l.13-.06a47.23,47.23,0,0,0,9.33-5.23c1.72-1.21,3.37-2.47,5.05-3.85a46.22,46.22,0,0,0,4.23-3.94,2.64,2.64,0,0,1,1.06-.33.44.44,0,0,1,.48.48,3,3,0,0,1-.63,1.46,17.06,17.06,0,0,1-3.52,3.76c-1.43,1.12-2.95,2.3-4.44,3.4l-1,.78a59.76,59.76,0,0,1-8.89,5.25l-.39.2A5,5,0,0,1,163.61,194.59Zm2.7-15.2c-2.2,1.74-2.88,4.22-3.35,6.42l0,.14c0,.06,0,.06.07.06a.66.66,0,0,0,.42-.15A10.42,10.42,0,0,0,166.31,179.39Z" transform="translate(-16.13 -11.61)"/><path class="cls-1" d="M166.43,176.88a2,2,0,0,1,.48,0c1.26.13,1.91.42,2.17,1.68a8.07,8.07,0,0,1,.07.81,7.83,7.83,0,0,1-1.07,3.43c-1.07,2.33-2.49,4.34-5.12,5.08a.84.84,0,0,0-.55.42,1.86,1.86,0,0,0-.19.94v.58a4.74,4.74,0,0,0,.68,2.3,1,1,0,0,0,.71.33,2,2,0,0,0,.87-.26l.13-.07a46.39,46.39,0,0,0,9.36-5.24c1.52-1.07,3.2-2.33,5.05-3.85a46.91,46.91,0,0,0,4.24-3.95,2.44,2.44,0,0,1,1-.29.32.32,0,0,1,.36.35,3.07,3.07,0,0,1-.62,1.39,16.65,16.65,0,0,1-3.49,3.73c-1.53,1.2-3,2.33-4.44,3.4l-1,.77a59.11,59.11,0,0,1-8.87,5.25l-.38.19a4.21,4.21,0,0,1-4.11,0,3.86,3.86,0,0,1-1.88-2.55,11.24,11.24,0,0,1-.55-3.4,8.59,8.59,0,0,1,.23-2.07,17.76,17.76,0,0,1,2.39-6.19,6.59,6.59,0,0,1,2.82-2.49,5.84,5.84,0,0,1,1.78-.36m0,2.24c-2.3,1.68-3.08,4.08-3.63,6.67l0,.13c0,.09,0,.22.2.22a.77.77,0,0,0,.51-.19,10.56,10.56,0,0,0,3-6.83m0-2.49a6,6,0,0,0-1.86.37,6.7,6.7,0,0,0-2.95,2.59,18,18,0,0,0-2.43,6.27A8.84,8.84,0,0,0,159,188a11.64,11.64,0,0,0,.56,3.47,4.19,4.19,0,0,0,2,2.72,5.41,5.41,0,0,0,2.08.54,5.18,5.18,0,0,0,2.25-.58l.39-.19a60.87,60.87,0,0,0,8.9-5.27l1-.78c1.5-1.09,3-2.28,4.44-3.4a17.2,17.2,0,0,0,3.56-3.79,3.24,3.24,0,0,0,.65-1.53.58.58,0,0,0-.61-.61,2.65,2.65,0,0,0-1.08.32l-.08.05a44.81,44.81,0,0,1-4.22,3.93c-1.67,1.38-3.32,2.64-5,3.84a46.52,46.52,0,0,1-9.3,5.22l-.15.07a1.93,1.93,0,0,1-.76.23.77.77,0,0,1-.53-.25,4.75,4.75,0,0,1-.61-2.13v-.57a1.6,1.6,0,0,1,.17-.81.51.51,0,0,1,.36-.29c3-.85,4.4-3.24,5.31-5.23a8,8,0,0,0,1.09-3.54,6.11,6.11,0,0,0-.05-.73v-.11c-.3-1.43-1.07-1.77-2.4-1.91a2.85,2.85,0,0,0-.51,0Zm-3.36,9.25v0c.55-2.59,1.3-4.65,3.07-6.16a10.33,10.33,0,0,1-2.82,6.08.52.52,0,0,1-.26.11Z" transform="translate(-16.13 -11.61)"/><path class="cls-1" d="M186.62,192.42a3.77,3.77,0,0,1-3.77-2.77,15.1,15.1,0,0,1-.56-4,24.94,24.94,0,0,1,1.07-7.55c.38-1.17,1-1.74,1.84-1.74s1.78.35,1.78,1.1a1,1,0,0,1,0,.28,33.06,33.06,0,0,0-1.41,9.27c0,.9.16,3,1.6,3.14a4.18,4.18,0,0,0,2-1.22c1.64-1.58,3-2.92,4-4s2.18-2.46,3.52-4l1.3-1.61.41-.08c.73,0,.88.4.88.74,0,.85-1.34,2.75-4.24,6a59.78,59.78,0,0,1-4.54,4.8,5.77,5.77,0,0,1-3.77,1.68h0Zm-.09-21.07c-.95,0-1.42-.55-1.42-1.62,0-.53.3-1.19,1.47-1.32h0a1.6,1.6,0,0,1,1.47,1.38c0,1-.49,1.56-1.42,1.56Z" transform="translate(-16.13 -11.61)"/><path class="cls-1" d="M186.59,168.53a1.48,1.48,0,0,1,1.33,1.27c0,.93-.42,1.42-1.29,1.42h-.1c-.88,0-1.3-.49-1.3-1.49,0-.68.49-1.1,1.36-1.2m-1.39,8c.62,0,1.65.29,1.65,1a1.58,1.58,0,0,1-.06.32A32.74,32.74,0,0,0,185.4,187c0,1.65.45,3.17,1.71,3.27a4.25,4.25,0,0,0,2.07-1.27q2.48-2.37,4-4c1-1.1,2.17-2.46,3.53-4l1.3-1.62.32,0c.49,0,.75.2.75.62,0,.81-1.4,2.75-4.21,5.89a60.61,60.61,0,0,1-4.53,4.79,5.53,5.53,0,0,1-3.69,1.65,3.64,3.64,0,0,1-3.66-2.68,15,15,0,0,1-.55-4,24.64,24.64,0,0,1,1.06-7.51c.36-1.1.91-1.65,1.72-1.65m1.39-8.22h0c-1.32.15-1.56,1-1.58,1.44,0,1.45.84,1.76,1.55,1.76h.1c1,0,1.55-.6,1.55-1.68a1.75,1.75,0,0,0-1.59-1.52Zm-1.39,8c-.92,0-1.56.6-2,1.83a24.94,24.94,0,0,0-1.08,7.59,15.13,15.13,0,0,0,.56,4,3.92,3.92,0,0,0,3.9,2.88,5.84,5.84,0,0,0,3.88-1.73A60,60,0,0,0,195,186c3.83-4.27,4.27-5.5,4.27-6.06,0-.26-.1-.87-1-.87l-.35,0a.23.23,0,0,0-.17.1l-1.3,1.62c-1.34,1.56-2.51,2.93-3.51,4s-2.34,2.4-4,4a4,4,0,0,1-1.91,1.19c-1.3-.14-1.44-2.15-1.44-3a32.91,32.91,0,0,1,1.38-9.16l0-.08a1.67,1.67,0,0,0,.05-.31c0-.85-1.12-1.23-1.91-1.23Z" transform="translate(-16.13 -11.61)"/><path class="cls-1" d="M196.21,212.52a.58.58,0,0,1-.44-.29.71.71,0,0,0-.15-.15c-1.33-.4-1.48-1.5-1.52-2.5a6.49,6.49,0,0,0,0-.77c0-.26,0-.51,0-.75a8.42,8.42,0,0,1,.46-2.7,14.19,14.19,0,0,0,.38-1.47c.9-4.5,2.74-8.56,4.87-13a3.76,3.76,0,0,0,.44-1.56,3.07,3.07,0,0,0-.19-1,63.47,63.47,0,0,1-2.46-8.59,25.35,25.35,0,0,1-.69-2.94,1.78,1.78,0,0,1,.14-.7c.08-.25.35-.57,1.22-.57a4.25,4.25,0,0,1,.81.1c.75.19,1.35,1.41,1.78,3.63.32,1.49.71,3.24,1.19,5.24a.51.51,0,0,1,0,.26c.08.55.3.57.37.58s.32-.18.48-.69c1.83-3.37,3.71-5.63,5.59-6.74a1.92,1.92,0,0,1,.81-.3,1.37,1.37,0,0,1,.54.16,3.89,3.89,0,0,0,.41.17c.67.14,1,.49,1,1a1.2,1.2,0,0,1-.66.94c-.11.09-.22.17-.31.26A36.37,36.37,0,0,0,204,189a1.82,1.82,0,0,0-.25.85,1.61,1.61,0,0,0,.19.72l.31.66a15.79,15.79,0,0,0,.81,1.62,6.42,6.42,0,0,0,2.76,2.78,6,6,0,0,0,2.77.63c2.71,0,6.77-1.69,12.07-5a88.35,88.35,0,0,0,15.93-13.15,2,2,0,0,1,.94-.43c.27,0,.41.29.41.87,0,.86-2,3-6,6.44A71.63,71.63,0,0,1,217,196.39a15.87,15.87,0,0,1-6.88,1.79,8.85,8.85,0,0,1-7.23-4,1.75,1.75,0,0,1-.4-.6c-.19-.33-.39-.51-.56-.51-.33,0-.48.52-.57.8a1.08,1.08,0,0,1-.06.19,68.11,68.11,0,0,0-5,13.32,6.15,6.15,0,0,0-.29,1.84,5.23,5.23,0,0,0,.44,2.22l.05.1a1.18,1.18,0,0,1,.13.4A.55.55,0,0,1,196.21,212.52Z" transform="translate(-16.13 -11.61)"/><path class="cls-1" d="M198.18,175.62a3.33,3.33,0,0,1,.78.1c.68.16,1.26,1.33,1.68,3.53.32,1.49.71,3.23,1.2,5.24a.54.54,0,0,1,0,.23c.07.45.23.68.49.71s.45-.26.61-.78c1.82-3.33,3.66-5.56,5.54-6.66a1.65,1.65,0,0,1,.74-.3,4.52,4.52,0,0,1,.91.33c.61.13.94.42.94.9s-.62.78-.94,1.1a36.49,36.49,0,0,0-6.31,8.91,1.82,1.82,0,0,0-.26.9,1.72,1.72,0,0,0,.19.78c.62,1.29,1,2.07,1.13,2.3a6.55,6.55,0,0,0,2.82,2.81,6,6,0,0,0,2.82.65q4.13,0,12.14-5.05a88.29,88.29,0,0,0,15.95-13.17,1.92,1.92,0,0,1,.85-.39c.19,0,.29.26.29.74q0,1.22-6,6.35A71,71,0,0,1,217,196.27a15.64,15.64,0,0,1-6.83,1.78c-2.79,0-5.15-1.29-7.13-3.91a1.77,1.77,0,0,1-.38-.58c-.23-.39-.46-.59-.68-.59-.52.07-.65.84-.75,1.07a67.33,67.33,0,0,0-5,13.34,6.08,6.08,0,0,0-.29,1.87,5.24,5.24,0,0,0,.45,2.27,1.51,1.51,0,0,1,.16.45.42.42,0,0,1-.32.42c-.23,0-.36-.32-.52-.42-1.26-.39-1.43-1.39-1.46-2.39,0-.52-.1-1-.1-1.52a8.41,8.41,0,0,1,.46-2.66,13.06,13.06,0,0,0,.39-1.49c.9-4.53,2.75-8.57,4.85-13a3.86,3.86,0,0,0,.46-1.62,3.06,3.06,0,0,0-.2-1.06,61.79,61.79,0,0,1-2.46-8.58c-.45-1.78-.68-2.75-.68-2.91a1.57,1.57,0,0,1,.13-.65c.1-.33.49-.49,1.1-.49m0-.25c-1,0-1.25.36-1.34.66a1.86,1.86,0,0,0-.15.73,21.8,21.8,0,0,0,.69,3,61.79,61.79,0,0,0,2.47,8.61,2.77,2.77,0,0,1,.18,1,3.5,3.5,0,0,1-.43,1.51c-2.13,4.46-4,8.53-4.87,13a14.66,14.66,0,0,1-.38,1.46,8.4,8.4,0,0,0-.47,2.74,6.47,6.47,0,0,0,.05.76c0,.25,0,.51,0,.76,0,1.11.25,2.19,1.59,2.63a.94.94,0,0,1,.1.1.7.7,0,0,0,.54.34.68.68,0,0,0,.58-.68,1.25,1.25,0,0,0-.14-.45l-.05-.1a5.18,5.18,0,0,1-.43-2.17,6.2,6.2,0,0,1,.28-1.8,68,68,0,0,1,5-13.29c0-.07.05-.14.08-.22.08-.25.21-.68.47-.71,0,0,.18,0,.42.45a2.25,2.25,0,0,0,.43.64,9,9,0,0,0,7.31,4,16,16,0,0,0,6.94-1.81A71.75,71.75,0,0,0,234,185c5.42-4.67,6-6,6-6.54s-.18-1-.54-1a2.07,2.07,0,0,0-1,.43l0,0a88.52,88.52,0,0,1-15.91,13.14c-5.28,3.32-9.31,5-12,5a5.81,5.81,0,0,1-2.7-.62,6.29,6.29,0,0,1-2.72-2.72c-.13-.19-.4-.77-.82-1.65l-.3-.63a1.55,1.55,0,0,1-.17-.67,1.62,1.62,0,0,1,.23-.78,36.59,36.59,0,0,1,6.27-8.85,2.61,2.61,0,0,1,.3-.23,1.32,1.32,0,0,0,.71-1.05c0-.41-.2-.95-1.14-1.15l-.36-.15a1.51,1.51,0,0,0-.6-.18,1.83,1.83,0,0,0-.87.33c-1.9,1.11-3.8,3.39-5.63,6.76-.17.53-.35.64-.39.64s-.19-.18-.24-.49a.46.46,0,0,0,0-.27c-.51-2.11-.9-3.9-1.19-5.22-.44-2.3-1-3.52-1.87-3.72a3.82,3.82,0,0,0-.84-.1Z" transform="translate(-16.13 -11.61)"/></svg>